<svg xmlns="http://www.w3.org/2000/svg" version="1.1" viewBox="1.1700000762939453 1.3938806056976318 450.1600341796875 506.06610107421875" width="453.00" height="509.00">
<g stroke-width="2.00" fill="none" stroke-linecap="butt">
<path stroke="#d5ac44" d="&#10;  M 225.04 1.95&#10;  Q 225.16 34.23 224.90 66.25&#10;  Q 224.80 77.51 224.26 80.76&#10;  Q 223.77 83.70 223.55 85.83"/>
<path stroke="#ecd251" d="&#10;  M 172.67 18.49&#10;  Q 172.87 24.41 172.80 30.13&#10;  Q 172.80 30.34 172.91 30.86&#10;  Q 173.02 31.41 172.67 31.73&#10;  Q 172.35 32.04 172.37 32.49&#10;  Q 172.88 44.27 172.59 47.62&#10;  Q 171.93 55.33 172.04 63.04&#10;  Q 172.21 74.70 172.00 78.46&#10;  Q 171.46 87.98 170.36 97.37&#10;  A 1.86 1.86 0.0 0 0 173.15 99.19&#10;  Q 175.30 97.93 178.25 97.37&#10;  Q 184.71 96.15 190.80 93.67&#10;  Q 199.62 90.08 209.61 88.31&#10;  Q 211.28 88.01 211.26 86.32&#10;  Q 211.12 75.37 211.46 63.50&#10;  Q 211.79 51.94 211.40 30.02&#10;  Q 211.32 25.87 211.67 21.49&#10;  Q 212.01 17.23 212.29 12.97&#10;  Q 212.43 10.77 211.78 8.65&#10;  Q 211.12 6.51 210.47 4.43"/>
<path stroke="#be8837" d="&#10;  M 255.60 12.08&#10;  Q 255.33 13.75 255.51 17.77&#10;  Q 256.00 28.74 255.65 47.25&#10;  Q 255.20 70.65 255.00 94.06&#10;  Q 254.99 94.49 255.31 94.78&#10;  L 255.55 95.00&#10;  Q 255.96 95.38 255.43 95.56&#10;  L 254.69 95.82"/>
<path stroke="#deba4a" d="&#10;  M 225.20 98.94&#10;  L 224.56 99.54&#10;  Q 224.17 99.90 224.35 100.41&#10;  Q 225.41 103.51 225.47 106.67&#10;  Q 225.56 111.24 225.57 111.31&#10;  Q 226.62 126.11 225.74 141.03"/>
<path stroke="#e9c74c" d="&#10;  M 210.29 144.21&#10;  Q 208.81 144.05 209.20 143.15&#10;  A 0.74 0.74 0.0 0 0 208.26 142.16&#10;  Q 204.42 143.56 200.51 143.75&#10;  Q 197.87 143.88 190.98 147.38&#10;  C 189.31 148.22 187.63 148.65 185.84 149.19"/>
<path stroke="#ecd251" d="&#10;  M 185.84 149.19&#10;  Q 184.33 149.57 183.35 147.19&#10;  Q 182.89 146.08 183.02 144.25&#10;  Q 183.23 141.19 183.10 135.50&#10;  Q 182.84 124.11 182.34 119.78&#10;  Q 181.83 115.36 185.58 113.91&#10;  Q 187.99 112.98 188.68 112.59&#10;  Q 190.18 111.78 191.76 111.13&#10;  Q 192.04 111.01 192.12 110.72&#10;  L 192.25 110.18&#10;  Q 192.32 109.92 192.57 110.00&#10;  L 193.07 110.16&#10;  Q 193.51 110.29 193.19 109.96&#10;  Q 192.24 108.97 193.50 108.26"/>
<path stroke="#be8837" d="&#10;  M 253.92 108.16&#10;  Q 253.51 118.08 252.92 127.54&#10;  C 252.63 132.23 252.93 136.73 253.11 141.38&#10;  C 253.19 143.41 252.19 145.49 253.17 147.93&#10;  Q 253.37 148.43 252.83 148.48&#10;  Q 252.26 148.53 252.01 148.68"/>
<path stroke="#e0ba46" d="&#10;  M 185.84 149.19&#10;  C 178.35 151.96 170.84 152.72 163.08 156.30&#10;  C 160.90 157.31 158.68 157.41 156.38 157.60"/>
<path stroke="#d4a73f" d="&#10;  M 222.55 152.46&#10;  C 224.45 158.30 224.29 166.26 223.90 171.99&#10;  Q 223.15 183.01 223.36 193.83"/>
<path stroke="#ecd251" d="&#10;  M 204.69 157.88&#10;  Q 204.05 158.36 204.20 159.01&#10;  Q 204.29 159.41 203.91 159.57&#10;  Q 197.16 162.37 190.27 164.74&#10;  Q 189.37 165.05 188.26 166.27&#10;  Q 187.95 166.61 187.93 167.07&#10;  L 186.95 198.56&#10;  A 1.65 1.65 0.0 0 0 189.19 200.15&#10;  Q 200.50 195.78 212.49 194.15&#10;  A 0.87 0.82 9.9 0 0 213.10 193.75&#10;  Q 214.53 191.31 214.55 190.00&#10;  Q 214.89 172.49 213.76 154.99"/>
<path stroke="#e5c149" d="&#10;  M 122.57 165.26&#10;  Q 123.38 185.10 122.35 204.75"/>
<path stroke="#e9c74c" d="&#10;  M 108.62 251.92&#10;  Q 110.96 235.56 110.72 219.17&#10;  Q 110.72 218.58 110.22 218.27&#10;  Q 108.77 217.38 105.98 217.27"/>
<path stroke="#dab447" d="&#10;  M 343.27 165.54&#10;  Q 344.44 168.74 344.16 173.72&#10;  Q 343.21 190.24 342.87 195.00&#10;  Q 342.61 198.46 341.78 201.83&#10;  Q 341.67 202.28 341.77 202.72&#10;  L 342.10 204.24&#10;  A 0.57 0.56 -10.4 0 1 341.62 204.92&#10;  L 338.53 205.36"/>
<path stroke="#dab447" d="&#10;  M 222.60 206.13&#10;  L 223.10 248.03"/>
<path stroke="#be8837" d="&#10;  M 256.23 214.55&#10;  Q 255.02 215.50 256.10 216.93&#10;  A 0.92 0.92 0.0 0 1 256.23 217.78&#10;  C 255.65 219.42 256.32 220.63 256.20 222.08&#10;  Q 254.97 236.35 254.68 250.63&#10;  Q 254.64 252.43 253.07 254.57"/>
<path stroke="#dab447" d="&#10;  M 339.02 216.63&#10;  L 343.22 217.52&#10;  A 0.64 0.64 0.0 0 1 343.73 218.18&#10;  C 343.56 221.33 343.41 224.24 343.62 227.52&#10;  Q 344.33 238.61 343.12 249.69&#10;  Q 343.08 250.06 342.54 250.56&#10;  Q 342.13 250.94 342.52 251.33&#10;  L 342.98 251.79"/>
<path stroke="#d4a73f" d="&#10;  M 223.82 260.54&#10;  Q 224.01 267.24 224.43 273.60&#10;  Q 224.79 279.09 224.53 284.92&#10;  C 224.33 289.59 224.78 294.60 223.97 299.17&#10;  Q 223.72 300.58 223.83 302.12"/>
<path stroke="#ecd251" d="&#10;  M 209.14 305.49&#10;  Q 211.07 300.26 211.06 295.51&#10;  Q 211.01 280.08 208.87 264.56"/>
<path stroke="#e9c74c" d="&#10;  M 196.75 308.50&#10;  Q 194.46 306.09 190.02 307.47&#10;  C 184.91 309.06 180.28 309.65 175.06 311.26"/>
<path stroke="#ecd251" d="&#10;  M 175.06 311.26&#10;  Q 173.31 292.77 173.33 274.31"/>
<path stroke="#e0ba46" d="&#10;  M 175.06 311.26&#10;  Q 170.79 312.80 164.86 313.97&#10;  Q 164.79 313.98 161.73 315.03&#10;  Q 159.66 315.74 156.76 315.14"/>
<path stroke="#e9c74c" d="&#10;  M 111.75 263.07&#10;  L 110.78 292.27"/>
<path stroke="#e9c74c" d="&#10;  M 325.38 263.13&#10;  L 327.41 264.06&#10;  Q 327.95 264.31 327.66 264.83&#10;  Q 326.69 266.59 327.78 268.51&#10;  Q 327.96 268.85 327.95 269.23&#10;  L 326.87 296.27"/>
<path stroke="#d1a23f" d="&#10;  M 355.77 263.14&#10;  Q 355.24 268.57 356.00 273.86&#10;  Q 356.51 277.42 356.58 279.67&#10;  Q 356.66 282.49 356.84 285.32&#10;  Q 356.87 285.70 356.60 285.97&#10;  Q 356.00 286.56 356.41 287.01&#10;  Q 356.77 287.41 356.66 287.94&#10;  Q 355.79 292.02 356.43 296.21"/>
<path stroke="#dab447" d="&#10;  M 32.34 276.13&#10;  Q 33.47 284.77 32.04 293.70"/>
<path stroke="#e9c74c" d="&#10;  M 406.07 276.09&#10;  Q 409.58 285.98 407.42 297.90"/>
<path stroke="#d09d3a" d="&#10;  M 431.43 276.09&#10;  L 436.41 276.32&#10;  A 2.26 2.24 -1.5 0 1 438.55 278.34&#10;  Q 438.90 281.82 438.90 285.68&#10;  Q 438.90 285.79 439.12 291.04&#10;  Q 439.24 293.89 438.70 296.73&#10;  Q 438.61 297.24 438.10 297.35&#10;  L 435.77 297.86"/>
<path stroke="#e9c74c" d="&#10;  M 105.77 302.28&#10;  L 108.28 302.84&#10;  Q 108.79 302.96 108.83 303.47&#10;  Q 110.42 321.08 109.81 338.74&#10;  Q 109.80 339.27 110.03 339.74&#10;  Q 110.68 341.06 110.38 342.53&#10;  Q 110.35 342.69 110.49 342.77&#10;  L 110.73 342.91&#10;  Q 111.18 343.17 110.67 343.27&#10;  L 109.53 343.51"/>
<path stroke="#dab447" d="&#10;  M 25.18 302.50&#10;  L 28.96 303.13&#10;  A 0.80 0.80 0.0 0 1 29.61 303.85&#10;  L 31.02 321.17"/>
<path stroke="#e9c74c" d="&#10;  M 331.60 306.47&#10;  Q 332.43 323.66 331.66 340.60&#10;  A 0.36 0.36 0.0 0 1 331.45 340.91&#10;  Q 331.22 341.03 331.16 341.25&#10;  Q 331.03 341.80 331.47 342.24"/>
<path stroke="#d4a73f" d="&#10;  M 428.96 308.25&#10;  Q 428.72 308.91 429.10 309.41&#10;  Q 429.20 309.54 429.34 309.49&#10;  L 429.69 309.38&#10;  A 0.28 0.28 0.0 0 1 430.05 309.66&#10;  L 429.21 332.65"/>
<path stroke="#d1a23f" d="&#10;  M 228.42 315.90&#10;  Q 228.80 320.15 229.59 324.25&#10;  Q 230.48 328.85 229.95 335.47&#10;  Q 229.35 342.91 229.33 346.61&#10;  Q 229.29 353.56 228.90 360.50&#10;  Q 227.85 379.30 228.47 398.11&#10;  Q 228.66 403.57 228.08 409.84&#10;  Q 227.37 417.42 227.46 423.75&#10;  Q 227.53 428.99 228.15 442.92&#10;  Q 228.47 450.22 228.16 459.56&#10;  Q 227.77 471.50 228.51 476.24&#10;  Q 229.28 481.13 229.23 483.92&#10;  Q 229.18 486.55 229.18 486.58&#10;  Q 229.47 496.85 229.86 507.21"/>
<path stroke="#e9c74c" d="&#10;  M 220.02 507.22&#10;  Q 219.98 504.46 219.88 501.74&#10;  Q 219.78 499.01 219.90 496.26&#10;  Q 220.29 487.61 220.07 478.96&#10;  C 219.89 472.22 220.43 465.80 220.61 459.17&#10;  C 220.69 456.20 220.17 451.58 220.66 447.50&#10;  Q 221.32 442.01 220.75 435.00&#10;  C 219.85 423.90 220.95 408.67 220.64 396.33&#10;  Q 219.80 362.27 220.00 328.20&#10;  Q 220.01 326.88 219.66 321.81&#10;  Q 219.45 318.73 219.73 315.36"/>
<path stroke="#c58f37" d="&#10;  M 233.68 317.26&#10;  Q 235.28 329.05 234.42 337.00&#10;  Q 234.05 340.41 234.25 342.76&#10;  Q 234.57 346.69 234.57 346.78&#10;  Q 234.64 358.65 234.35 370.51&#10;  Q 234.14 378.69 234.07 390.49&#10;  Q 234.01 401.48 233.47 412.41&#10;  A 24.63 24.51 -48.2 0 0 233.74 417.40&#10;  Q 233.79 417.69 233.31 420.31&#10;  Q 233.04 421.80 233.01 423.22&#10;  C 232.78 432.98 233.41 440.23 233.39 446.83&#10;  Q 233.38 450.12 233.39 450.17&#10;  C 233.92 458.39 233.17 466.73 233.56 475.00&#10;  Q 233.58 475.44 234.20 490.52&#10;  Q 234.54 498.85 235.75 507.29"/>
<path stroke="#ecd251" d="&#10;  M 185.64 507.23&#10;  Q 184.48 482.51 184.08 457.82&#10;  C 184.03 454.80 184.60 451.02 184.37 447.56&#10;  Q 183.88 440.22 183.88 439.91&#10;  C 183.77 426.35 183.44 412.76 183.61 399.25&#10;  Q 183.97 370.17 183.75 350.00&#10;  Q 183.58 334.13 183.94 324.24"/>
<path stroke="#bd8332" d="&#10;  M 259.88 323.10&#10;  Q 258.91 332.38 260.18 341.30&#10;  Q 261.09 347.71 261.10 351.07&#10;  C 261.13 359.73 260.45 368.79 260.59 376.98&#10;  Q 260.73 385.49 260.79 394.00&#10;  C 260.86 405.66 259.48 419.84 259.93 430.73&#10;  Q 260.83 452.69 259.66 474.63&#10;  C 259.46 478.49 259.93 482.95 259.57 487.20&#10;  A 1.18 1.14 28.1 0 0 259.84 488.04&#10;  Q 260.17 488.43 260.13 488.76&#10;  Q 259.79 492.32 260.09 497.26&#10;  Q 260.38 502.07 258.66 507.46"/>
<path stroke="#e0ba46" d="&#10;  M 164.85 507.23&#10;  C 164.77 504.27 163.89 501.33 163.92 498.56&#10;  Q 164.05 487.76 163.20 476.99&#10;  Q 162.81 471.97 163.43 462.99&#10;  Q 164.02 454.57 164.03 449.00&#10;  Q 164.08 402.85 163.88 356.70&#10;  C 163.85 351.63 164.75 346.29 164.90 340.97&#10;  Q 164.99 337.55 165.48 335.08&#10;  Q 166.04 332.22 166.74 329.29"/>
<path stroke="#deba4a" d="&#10;  M 25.18 329.24&#10;  Q 25.51 329.68 26.40 329.89&#10;  Q 26.83 329.99 26.88 330.43&#10;  L 27.12 332.34&#10;  Q 27.18 332.79 26.94 333.18&#10;  Q 26.47 333.95 26.79 334.74&#10;  Q 27.00 335.25 26.97 335.79&#10;  L 26.27 349.50&#10;  Q 26.26 349.77 26.52 349.85&#10;  Q 26.69 349.89 26.87 349.86&#10;  A 0.01 0.00 18.4 0 1 26.88 349.87&#10;  Q 26.88 349.87 26.87 349.87&#10;  Q 25.26 350.24 23.53 350.29"/>
<path stroke="#d09d3a" d="&#10;  M 419.70 343.63&#10;  L 424.14 344.04&#10;  Q 424.63 344.09 424.65 344.58&#10;  L 425.44 366.72"/>
<path stroke="#e9c74c" d="&#10;  M 403.34 366.68&#10;  Q 401.82 362.48 402.07 357.95&#10;  Q 402.23 354.96 401.90 352.55&#10;  Q 401.39 348.92 401.59 345.22&#10;  Q 401.60 345.09 401.48 345.03&#10;  Q 401.35 344.97 401.20 344.91&#10;  Q 400.80 344.73 400.97 344.33&#10;  L 401.20 343.81"/>
<path stroke="#e9c74c" d="&#10;  M 330.94 352.79&#10;  Q 333.29 353.23 333.27 354.97&#10;  Q 333.15 369.27 333.33 383.77"/>
<path stroke="#e9c74c" d="&#10;  M 115.22 353.87&#10;  L 113.89 355.18&#10;  Q 113.57 355.50 113.83 355.87&#10;  L 114.42 356.69&#10;  Q 114.68 357.06 114.64 357.51&#10;  Q 113.70 367.26 113.92 377.03&#10;  C 113.97 379.28 112.85 381.32 112.76 383.73"/>
<path stroke="#d9af42" d="&#10;  M 35.37 359.40&#10;  L 35.02 379.58&#10;  Q 35.01 379.96 35.38 380.05&#10;  L 35.74 380.14&#10;  Q 36.13 380.24 35.74 380.34&#10;  Q 35.17 380.50 35.20 380.81"/>
<path stroke="#e5c149" d="&#10;  M 403.42 377.31&#10;  L 407.48 377.85&#10;  Q 408.03 377.93 407.84 378.45&#10;  Q 407.28 380.02 407.77 382.13&#10;  Q 408.48 385.19 407.78 390.24&#10;  Q 407.71 390.75 408.10 391.09&#10;  Q 408.85 391.76 408.65 392.72&#10;  Q 408.55 393.20 408.67 393.67&#10;  Q 409.64 397.38 409.03 401.23"/>
<path stroke="#d09d3a" d="&#10;  M 417.69 377.30&#10;  L 420.05 377.63&#10;  Q 420.62 377.71 420.62 378.28&#10;  L 420.62 392.58&#10;  A 1.59 1.58 26.9 0 0 420.93 393.52&#10;  Q 422.07 395.04 421.83 396.99&#10;  Q 421.78 397.47 421.42 397.79&#10;  Q 420.27 398.82 420.56 401.21"/>
<path stroke="#d4a73f" d="&#10;  M 37.17 409.13&#10;  Q 38.57 409.47 39.18 406.20&#10;  Q 39.46 404.73 38.86 402.87&#10;  Q 38.04 400.29 38.13 399.08&#10;  Q 38.53 394.18 36.41 389.20"/>
<path stroke="#d09d3a" d="&#10;  M 369.37 429.45&#10;  Q 369.02 429.61 368.93 429.76"/>
<path stroke="#e9c74c" d="&#10;  M 327.68 428.72&#10;  L 331.22 428.16&#10;  Q 331.68 428.09 331.45 427.68&#10;  Q 330.34 425.77 330.36 424.85&#10;  Q 330.47 417.22 332.27 399.78&#10;  Q 332.53 397.26 331.50 394.70"/>
<path stroke="#d4a73f" d="&#10;  M 356.08 470.94&#10;  Q 356.67 468.77 357.12 466.66&#10;  Q 357.55 464.68 357.56 462.29&#10;  Q 357.60 453.89 357.95 445.50&#10;  Q 357.96 445.25 358.23 445.13&#10;  Q 358.39 445.05 358.32 444.89&#10;  Q 357.01 441.92 358.16 439.37"/>
<path stroke="#ecd251" d="&#10;  M 317.55 471.01&#10;  Q 316.65 465.65 318.41 460.57&#10;  A 1.39 1.34 -47.2 0 0 318.39 459.61&#10;  C 317.43 457.22 317.96 454.71 317.85 452.88&#10;  C 317.59 448.59 317.26 444.55 317.73 440.29&#10;  Q 317.78 439.83 317.33 439.73&#10;  L 316.70 439.57"/>
<path stroke="#ddb545" d="&#10;  M 305.27 461.81&#10;  Q 306.10 455.71 305.33 450.66"/>
<path stroke="#e9c74c" d="&#10;  M 114.95 394.78&#10;  L 115.26 395.16&#10;  Q 115.40 395.33 115.18 395.37&#10;  Q 114.60 395.47 114.41 395.99&#10;  Q 114.19 396.64 114.51 397.15&#10;  Q 114.75 397.54 114.73 398.00&#10;  Q 114.22 408.66 113.42 419.31&#10;  C 113.34 420.36 112.60 421.56 113.05 422.81&#10;  Q 113.21 423.26 113.20 423.74&#10;  L 113.04 428.74"/>
<path stroke="#d9af42" d="&#10;  M 411.69 412.35&#10;  L 415.20 413.11&#10;  Q 415.32 413.14 415.27 413.26&#10;  Q 415.21 413.38 415.14 413.51&#10;  A 0.42 0.41 13.2 0 0 415.51 414.10&#10;  Q 415.64 414.10 415.77 414.10&#10;  A 0.42 0.41 80.9 0 1 416.18 414.40&#10;  Q 418.41 422.18 416.85 428.62&#10;  Q 415.48 434.29 415.42 438.29"/>
<path stroke="#ddb545" d="&#10;  M 18.53 418.25&#10;  Q 19.79 418.26 20.78 418.72&#10;  Q 21.30 418.97 21.09 419.50&#10;  Q 20.31 421.40 20.75 423.27&#10;  C 21.06 424.59 22.36 425.38 21.72 427.28&#10;  Q 21.57 427.75 21.60 428.25&#10;  L 22.30 438.83"/>
<path stroke="#e9c74c" d="&#10;  M 116.61 439.35&#10;  Q 115.27 442.28 115.73 445.26&#10;  Q 117.70 457.90 116.96 468.44&#10;  Q 116.93 468.83 116.65 469.10&#10;  L 116.28 469.47&#10;  A 0.24 0.23 -67.1 0 0 116.44 469.87&#10;  Q 116.60 469.87 116.75 469.86&#10;  Q 117.26 469.80 116.86 470.22&#10;  Q 116.65 470.42 116.71 470.62"/>
<path stroke="#d9af42" d="&#10;  M 418.56 448.49&#10;  Q 419.27 449.93 419.84 451.47&#10;  Q 420.37 452.89 420.38 454.63&#10;  Q 420.46 462.77 420.27 471.10"/>
<path stroke="#ddb545" d="&#10;  M 28.18 449.26&#10;  L 29.62 449.70&#10;  Q 30.11 449.84 30.13 450.35&#10;  Q 30.51 458.15 30.46 465.86&#10;  Q 30.45 468.76 32.25 470.75"/>
<path stroke="#e9c74c" d="&#10;  M 23.77 481.22&#10;  L 23.83 504.76"/>
<path stroke="#d09d3a" d="&#10;  M 36.29 504.75&#10;  Q 35.71 501.17 35.73 499.24&#10;  Q 35.81 491.22 35.82 483.07&#10;  Q 35.82 482.53 35.35 482.26&#10;  Q 33.64 481.27 31.27 481.28"/>
<path stroke="#e9c74c" d="&#10;  M 114.91 481.17&#10;  L 119.31 481.86&#10;  Q 119.71 481.92 119.70 482.33&#10;  Q 119.63 484.14 119.21 485.84&#10;  Q 118.81 487.48 118.87 489.28&#10;  Q 118.97 492.00 118.21 494.90&#10;  Q 117.64 497.08 117.25 500.13&#10;  C 117.03 501.83 116.05 503.72 116.97 505.85&#10;  Q 117.14 506.25 116.71 506.32&#10;  L 113.03 506.84"/>
<path stroke="#dab447" d="&#10;  M 343.18 481.27&#10;  L 345.65 482.12&#10;  A 0.68 0.67 11.7 0 1 346.11 482.81&#10;  L 344.56 506.76"/>
<path stroke="#e9c74c" d="&#10;  M 405.08 481.78&#10;  Q 406.27 483.82 405.52 485.65&#10;  Q 405.33 486.11 405.57 486.54&#10;  Q 406.14 487.56 406.05 488.74&#10;  Q 405.40 496.80 404.03 504.75"/>
<path stroke="#d09d3a" d="&#10;  M 418.71 481.76&#10;  Q 419.13 489.39 419.82 496.93&#10;  C 420.00 498.85 419.51 500.10 420.64 502.26&#10;  A 1.26 1.26 0.0 0 1 419.85 504.06&#10;  L 417.29 504.75"/>
</g>
<path fill="#e3c44b" d="&#10;  M 225.04 1.95&#10;  Q 225.16 34.23 224.90 66.25&#10;  Q 224.80 77.51 224.26 80.76&#10;  Q 223.77 83.70 223.55 85.83&#10;  Q 199.88 93.29 175.70 101.57&#10;  Q 166.25 104.81 157.28 108.95&#10;  A 0.52 0.52 0.0 0 1 156.55 108.48&#10;  L 156.57 25.96&#10;  A 2.67 2.66 -9.5 0 1 158.37 23.44&#10;  L 172.67 18.49&#10;  Q 172.87 24.41 172.80 30.13&#10;  Q 172.80 30.34 172.91 30.86&#10;  Q 173.02 31.41 172.67 31.73&#10;  Q 172.35 32.04 172.37 32.49&#10;  Q 172.88 44.27 172.59 47.62&#10;  Q 171.93 55.33 172.04 63.04&#10;  Q 172.21 74.70 172.00 78.46&#10;  Q 171.46 87.98 170.36 97.37&#10;  A 1.86 1.86 0.0 0 0 173.15 99.19&#10;  Q 175.30 97.93 178.25 97.37&#10;  Q 184.71 96.15 190.80 93.67&#10;  Q 199.62 90.08 209.61 88.31&#10;  Q 211.28 88.01 211.26 86.32&#10;  Q 211.12 75.37 211.46 63.50&#10;  Q 211.79 51.94 211.40 30.02&#10;  Q 211.32 25.87 211.67 21.49&#10;  Q 212.01 17.23 212.29 12.97&#10;  Q 212.43 10.77 211.78 8.65&#10;  Q 211.12 6.51 210.47 4.43&#10;  C 215.36 1.92 219.68 0.56 225.04 1.95&#10;  Z"/>
<path fill="#c6943c" d="&#10;  M 225.04 1.95&#10;  L 255.60 12.08&#10;  Q 255.33 13.75 255.51 17.77&#10;  Q 256.00 28.74 255.65 47.25&#10;  Q 255.20 70.65 255.00 94.06&#10;  Q 254.99 94.49 255.31 94.78&#10;  L 255.55 95.00&#10;  Q 255.96 95.38 255.43 95.56&#10;  L 254.69 95.82&#10;  L 223.55 85.83&#10;  Q 223.77 83.70 224.26 80.76&#10;  Q 224.80 77.51 224.90 66.25&#10;  Q 225.16 34.23 225.04 1.95&#10;  Z"/>
<path fill="#f5df57" d="&#10;  M 210.47 4.43&#10;  Q 211.12 6.51 211.78 8.65&#10;  Q 212.43 10.77 212.29 12.97&#10;  Q 212.01 17.23 211.67 21.49&#10;  Q 211.32 25.87 211.40 30.02&#10;  Q 211.79 51.94 211.46 63.50&#10;  Q 211.12 75.37 211.26 86.32&#10;  Q 211.28 88.01 209.61 88.31&#10;  Q 199.62 90.08 190.80 93.67&#10;  Q 184.71 96.15 178.25 97.37&#10;  Q 175.30 97.93 173.15 99.19&#10;  A 1.86 1.86 0.0 0 1 170.36 97.37&#10;  Q 171.46 87.98 172.00 78.46&#10;  Q 172.21 74.70 172.04 63.04&#10;  Q 171.93 55.33 172.59 47.62&#10;  Q 172.88 44.27 172.37 32.49&#10;  Q 172.35 32.04 172.67 31.73&#10;  Q 173.02 31.41 172.91 30.86&#10;  Q 172.80 30.34 172.80 30.13&#10;  Q 172.87 24.41 172.67 18.49&#10;  L 210.47 4.43&#10;  Z"/>
<path fill="#b57c31" d="&#10;  M 255.60 12.08&#10;  Q 273.67 18.12 292.31 22.66&#10;  A 1.36 1.36 0.0 0 1 293.35 23.98&#10;  L 293.51 107.49&#10;  A 0.49 0.48 -81.3 0 1 292.88 107.96&#10;  L 254.69 95.82&#10;  L 255.43 95.56&#10;  Q 255.96 95.38 255.55 95.00&#10;  L 255.31 94.78&#10;  Q 254.99 94.49 255.00 94.06&#10;  Q 255.20 70.65 255.65 47.25&#10;  Q 256.00 28.74 255.51 17.77&#10;  Q 255.33 13.75 255.60 12.08&#10;  Z"/>
<path fill="#f5df57" d="&#10;  M 225.20 98.94&#10;  L 224.56 99.54&#10;  Q 224.17 99.90 224.35 100.41&#10;  Q 225.41 103.51 225.47 106.67&#10;  Q 225.56 111.24 225.57 111.31&#10;  Q 226.62 126.11 225.74 141.03&#10;  C 221.05 140.03 215.00 142.33 210.29 144.21&#10;  Q 208.81 144.05 209.20 143.15&#10;  A 0.74 0.74 0.0 0 0 208.26 142.16&#10;  Q 204.42 143.56 200.51 143.75&#10;  Q 197.87 143.88 190.98 147.38&#10;  C 189.31 148.22 187.63 148.65 185.84 149.19&#10;  Q 184.33 149.57 183.35 147.19&#10;  Q 182.89 146.08 183.02 144.25&#10;  Q 183.23 141.19 183.10 135.50&#10;  Q 182.84 124.11 182.34 119.78&#10;  Q 181.83 115.36 185.58 113.91&#10;  Q 187.99 112.98 188.68 112.59&#10;  Q 190.18 111.78 191.76 111.13&#10;  Q 192.04 111.01 192.12 110.72&#10;  L 192.25 110.18&#10;  Q 192.32 109.92 192.57 110.00&#10;  L 193.07 110.16&#10;  Q 193.51 110.29 193.19 109.96&#10;  Q 192.24 108.97 193.50 108.26&#10;  Q 208.38 103.44 223.25 98.49&#10;  Q 224.24 98.17 225.20 98.94&#10;  Z"/>
<path fill="#c6943c" d="&#10;  M 225.20 98.94&#10;  L 253.92 108.16&#10;  Q 253.51 118.08 252.92 127.54&#10;  C 252.63 132.23 252.93 136.73 253.11 141.38&#10;  C 253.19 143.41 252.19 145.49 253.17 147.93&#10;  Q 253.37 148.43 252.83 148.48&#10;  Q 252.26 148.53 252.01 148.68&#10;  Q 238.55 145.52 225.74 141.03&#10;  Q 226.62 126.11 225.57 111.31&#10;  Q 225.56 111.24 225.47 106.67&#10;  Q 225.41 103.51 224.35 100.41&#10;  Q 224.17 99.90 224.56 99.54&#10;  L 225.20 98.94&#10;  Z"/>
<path fill="#e3c44b" d="&#10;  M 193.50 108.26&#10;  Q 192.24 108.97 193.19 109.96&#10;  Q 193.51 110.29 193.07 110.16&#10;  L 192.57 110.00&#10;  Q 192.32 109.92 192.25 110.18&#10;  L 192.12 110.72&#10;  Q 192.04 111.01 191.76 111.13&#10;  Q 190.18 111.78 188.68 112.59&#10;  Q 187.99 112.98 185.58 113.91&#10;  Q 181.83 115.36 182.34 119.78&#10;  Q 182.84 124.11 183.10 135.50&#10;  Q 183.23 141.19 183.02 144.25&#10;  Q 182.89 146.08 183.35 147.19&#10;  Q 184.33 149.57 185.84 149.19&#10;  C 178.35 151.96 170.84 152.72 163.08 156.30&#10;  C 160.90 157.31 158.68 157.41 156.38 157.60&#10;  L 156.31 121.47&#10;  Q 156.31 120.97 156.79 120.81&#10;  Q 167.00 117.57 177.03 114.28&#10;  C 182.07 112.62 187.91 110.06 193.50 108.26&#10;  Z"/>
<path fill="#b57c31" d="&#10;  M 253.92 108.16&#10;  L 292.73 120.83&#10;  A 0.94 0.94 0.0 0 1 293.36 121.57&#10;  Q 293.69 123.56 293.66 126.75&#10;  Q 293.51 143.88 293.43 160.52&#10;  A 0.87 0.87 0.0 0 1 292.28 161.34&#10;  Q 272.31 154.28 252.01 148.68&#10;  Q 252.26 148.53 252.83 148.48&#10;  Q 253.37 148.43 253.17 147.93&#10;  C 252.19 145.49 253.19 143.41 253.11 141.38&#10;  C 252.93 136.73 252.63 132.23 252.92 127.54&#10;  Q 253.51 118.08 253.92 108.16&#10;  Z"/>
<path fill="#dcaf41" d="&#10;  M 210.29 144.21&#10;  Q 183.18 151.34 156.65 162.05&#10;  A 0.29 0.29 0.0 0 1 156.25 161.78&#10;  L 156.38 157.60&#10;  C 158.68 157.41 160.90 157.31 163.08 156.30&#10;  C 170.84 152.72 178.35 151.96 185.84 149.19&#10;  C 187.63 148.65 189.31 148.22 190.98 147.38&#10;  Q 197.87 143.88 200.51 143.75&#10;  Q 204.42 143.56 208.26 142.16&#10;  A 0.74 0.74 0.0 0 1 209.20 143.15&#10;  Q 208.81 144.05 210.29 144.21&#10;  Z"/>
<path fill="#e3c44b" d="&#10;  M 222.55 152.46&#10;  C 224.45 158.30 224.29 166.26 223.90 171.99&#10;  Q 223.15 183.01 223.36 193.83&#10;  L 157.48 212.04&#10;  Q 156.72 212.25 156.73 211.46&#10;  L 156.94 176.03&#10;  A 2.12 2.11 -12.6 0 1 158.15 174.14&#10;  Q 162.51 172.08 167.55 170.21&#10;  Q 185.90 163.41 204.69 157.88&#10;  Q 204.05 158.36 204.20 159.01&#10;  Q 204.29 159.41 203.91 159.57&#10;  Q 197.16 162.37 190.27 164.74&#10;  Q 189.37 165.05 188.26 166.27&#10;  Q 187.95 166.61 187.93 167.07&#10;  L 186.95 198.56&#10;  A 1.65 1.65 0.0 0 0 189.19 200.15&#10;  Q 200.50 195.78 212.49 194.15&#10;  A 0.87 0.82 9.9 0 0 213.10 193.75&#10;  Q 214.53 191.31 214.55 190.00&#10;  Q 214.89 172.49 213.76 154.99&#10;  L 222.55 152.46&#10;  Z"/>
<path fill="#c48a32" d="&#10;  M 222.55 152.46&#10;  C 228.56 153.40 235.25 156.22 239.80 157.50&#10;  Q 265.80 164.82 291.53 173.23&#10;  A 2.09 2.08 9.1 0 1 292.97 175.21&#10;  L 292.95 210.91&#10;  A 0.73 0.72 -82.5 0 1 292.05 211.61&#10;  L 223.36 193.83&#10;  Q 223.15 183.01 223.90 171.99&#10;  C 224.29 166.26 224.45 158.30 222.55 152.46&#10;  Z"/>
<path fill="#f5df57" d="&#10;  M 213.76 154.99&#10;  Q 214.89 172.49 214.55 190.00&#10;  Q 214.53 191.31 213.10 193.75&#10;  A 0.87 0.82 9.9 0 1 212.49 194.15&#10;  Q 200.50 195.78 189.19 200.15&#10;  A 1.65 1.65 0.0 0 1 186.95 198.56&#10;  L 187.93 167.07&#10;  Q 187.95 166.61 188.26 166.27&#10;  Q 189.37 165.05 190.27 164.74&#10;  Q 197.16 162.37 203.91 159.57&#10;  Q 204.29 159.41 204.20 159.01&#10;  Q 204.05 158.36 204.69 157.88&#10;  L 213.76 154.99&#10;  Z"/>
<path fill="#edd351" d="&#10;  M 122.57 165.26&#10;  Q 123.38 185.10 122.35 204.75&#10;  L 81.92 204.74&#10;  A 0.76 0.75 -0.0 0 1 81.16 203.99&#10;  L 81.22 166.03&#10;  A 0.77 0.77 0.0 0 1 81.99 165.26&#10;  L 122.57 165.26&#10;  Z"/>
<path fill="#dcaf41" d="&#10;  M 122.57 165.26&#10;  L 143.23 165.52&#10;  A 0.76 0.76 0.0 0 1 143.96 166.12&#10;  Q 144.40 168.23 144.41 170.25&#10;  Q 144.49 185.81 144.46 203.48&#10;  A 1.51 1.50 -89.4 0 1 142.93 204.99&#10;  L 133.26 204.81&#10;  A 1.16 1.16 0.0 0 0 132.08 206.00&#10;  L 132.39 216.78&#10;  A 0.40 0.40 0.0 0 0 132.78 217.17&#10;  L 142.22 217.42&#10;  A 2.05 2.05 0.0 0 1 144.22 219.47&#10;  L 144.13 251.47&#10;  A 0.90 0.89 -89.4 0 1 143.23 252.36&#10;  L 108.62 251.92&#10;  Q 110.96 235.56 110.72 219.17&#10;  Q 110.72 218.58 110.22 218.27&#10;  Q 108.77 217.38 105.98 217.27&#10;  L 129.69 217.20&#10;  Q 130.13 217.20 130.13 216.76&#10;  L 130.13 205.45&#10;  A 0.59 0.58 0.5 0 0 129.55 204.87&#10;  L 122.35 204.75&#10;  Q 123.38 185.10 122.57 165.26&#10;  Z"/>
<path fill="#edd351" d="&#10;  M 343.27 165.54&#10;  Q 344.44 168.74 344.16 173.72&#10;  Q 343.21 190.24 342.87 195.00&#10;  Q 342.61 198.46 341.78 201.83&#10;  Q 341.67 202.28 341.77 202.72&#10;  L 342.10 204.24&#10;  A 0.57 0.56 -10.4 0 1 341.62 204.92&#10;  L 338.53 205.36&#10;  L 306.07 205.34&#10;  A 1.60 1.60 0.0 0 1 304.47 203.74&#10;  L 304.49 167.73&#10;  Q 304.49 165.19 307.03 165.21&#10;  L 343.27 165.54&#10;  Z"/>
<path fill="#c6943c" d="&#10;  M 343.27 165.54&#10;  L 366.68 165.64&#10;  A 1.08 1.08 0.0 0 1 367.75 166.72&#10;  L 367.93 205.51&#10;  A 1.07 1.06 -87.1 0 1 366.76 206.58&#10;  Q 352.61 205.16 338.53 205.36&#10;  L 341.62 204.92&#10;  A 0.57 0.56 -10.4 0 0 342.10 204.24&#10;  L 341.77 202.72&#10;  Q 341.67 202.28 341.78 201.83&#10;  Q 342.61 198.46 342.87 195.00&#10;  Q 343.21 190.24 344.16 173.72&#10;  Q 344.44 168.74 343.27 165.54&#10;  Z"/>
<path fill="#edd351" d="&#10;  M 222.60 206.13&#10;  L 223.10 248.03&#10;  Q 190.30 255.47 157.50 265.50&#10;  A 0.55 0.55 0.0 0 1 156.79 264.98&#10;  Q 156.67 246.69 156.77 228.24&#10;  C 156.78 224.81 158.21 224.79 161.31 223.82&#10;  Q 176.51 219.08 191.74 214.41&#10;  Q 207.11 209.70 222.60 206.13&#10;  Z"/>
<path fill="#c6943c" d="&#10;  M 222.60 206.13&#10;  L 256.23 214.55&#10;  Q 255.02 215.50 256.10 216.93&#10;  A 0.92 0.92 0.0 0 1 256.23 217.78&#10;  C 255.65 219.42 256.32 220.63 256.20 222.08&#10;  Q 254.97 236.35 254.68 250.63&#10;  Q 254.64 252.43 253.07 254.57&#10;  Q 240.13 251.72 230.75 249.19&#10;  Q 226.96 248.17 223.10 248.03&#10;  L 222.60 206.13&#10;  Z"/>
<path fill="#b57c31" d="&#10;  M 256.23 214.55&#10;  Q 268.09 218.11 280.16 221.03&#10;  C 284.11 221.99 287.33 223.76 290.94 225.38&#10;  Q 292.95 226.28 292.95 228.47&#10;  L 292.96 264.77&#10;  A 0.44 0.43 -81.6 0 1 292.40 265.19&#10;  C 289.79 264.41 287.16 263.08 284.77 262.50&#10;  Q 272.15 259.44 259.57 256.25&#10;  Q 256.15 255.38 253.07 254.57&#10;  Q 254.64 252.43 254.68 250.63&#10;  Q 254.97 236.35 256.20 222.08&#10;  C 256.32 220.63 255.65 219.42 256.23 217.78&#10;  A 0.92 0.92 0.0 0 0 256.10 216.93&#10;  Q 255.02 215.50 256.23 214.55&#10;  Z"/>
<path fill="#edd351" d="&#10;  M 339.02 216.63&#10;  L 343.22 217.52&#10;  A 0.64 0.64 0.0 0 1 343.73 218.18&#10;  C 343.56 221.33 343.41 224.24 343.62 227.52&#10;  Q 344.33 238.61 343.12 249.69&#10;  Q 343.08 250.06 342.54 250.56&#10;  Q 342.13 250.94 342.52 251.33&#10;  L 342.98 251.79&#10;  L 305.48 251.88&#10;  A 1.03 1.02 89.7 0 1 304.45 250.85&#10;  L 304.46 217.80&#10;  Q 304.46 217.15 305.10 217.14&#10;  L 339.02 216.63&#10;  Z"/>
<path fill="#c6943c" d="&#10;  M 342.98 251.79&#10;  L 342.52 251.33&#10;  Q 342.13 250.94 342.54 250.56&#10;  Q 343.08 250.06 343.12 249.69&#10;  Q 344.33 238.61 343.62 227.52&#10;  C 343.41 224.24 343.56 221.33 343.73 218.18&#10;  A 0.64 0.64 0.0 0 0 343.22 217.52&#10;  L 339.02 216.63&#10;  L 367.15 216.55&#10;  A 1.20 1.19 89.8 0 1 368.35 217.75&#10;  L 368.52 251.02&#10;  A 1.43 1.43 0.0 0 1 367.05 252.46&#10;  L 342.98 251.79&#10;  Z"/>
<path fill="#f5df57" d="&#10;  M 105.98 217.27&#10;  Q 108.77 217.38 110.22 218.27&#10;  Q 110.72 218.58 110.72 219.17&#10;  Q 110.96 235.56 108.62 251.92&#10;  L 82.16 252.26&#10;  A 1.01 1.01 0.0 0 1 81.13 251.24&#10;  L 81.20 218.28&#10;  A 0.98 0.98 0.0 0 1 82.18 217.30&#10;  L 105.98 217.27&#10;  Z"/>
<path fill="#e3c44b" d="&#10;  M 223.82 260.54&#10;  Q 224.01 267.24 224.43 273.60&#10;  Q 224.79 279.09 224.53 284.92&#10;  C 224.33 289.59 224.78 294.60 223.97 299.17&#10;  Q 223.72 300.58 223.83 302.12&#10;  L 209.14 305.49&#10;  Q 211.07 300.26 211.06 295.51&#10;  Q 211.01 280.08 208.87 264.56&#10;  L 223.82 260.54&#10;  Z"/>
<path fill="#c48a32" d="&#10;  M 223.82 260.54&#10;  Q 231.39 261.69 234.05 262.66&#10;  C 238.41 264.25 243.46 264.89 247.32 266.03&#10;  Q 269.61 272.59 292.37 277.33&#10;  Q 292.79 277.42 292.80 277.85&#10;  L 293.32 317.88&#10;  Q 293.34 319.82 291.51 319.18&#10;  C 285.72 317.16 279.79 315.15 273.69 313.60&#10;  Q 245.73 306.50 235.51 304.91&#10;  Q 228.04 303.76 223.83 302.12&#10;  Q 223.72 300.58 223.97 299.17&#10;  C 224.78 294.60 224.33 289.59 224.53 284.92&#10;  Q 224.79 279.09 224.43 273.60&#10;  Q 224.01 267.24 223.82 260.54&#10;  Z"/>
<path fill="#f5df57" d="&#10;  M 111.75 263.07&#10;  L 110.78 292.27&#10;  L 82.45 292.23&#10;  Q 81.20 292.22 81.20 290.97&#10;  L 81.24 265.76&#10;  Q 81.25 263.17 83.84 263.16&#10;  L 111.75 263.07&#10;  Z"/>
<path fill="#dcaf41" d="&#10;  M 111.75 263.07&#10;  L 143.69 263.24&#10;  A 0.60 0.60 0.0 0 1 144.28 263.83&#10;  L 144.36 290.70&#10;  A 1.25 1.24 -0.5 0 1 143.13 291.94&#10;  L 110.78 292.27&#10;  L 111.75 263.07&#10;  Z"/>
<path fill="#f5df57" d="&#10;  M 325.38 263.13&#10;  L 327.41 264.06&#10;  Q 327.95 264.31 327.66 264.83&#10;  Q 326.69 266.59 327.78 268.51&#10;  Q 327.96 268.85 327.95 269.23&#10;  L 326.87 296.27&#10;  L 306.00 296.33&#10;  A 0.85 0.85 0.0 0 1 305.15 295.48&#10;  L 305.07 264.01&#10;  A 0.83 0.83 0.0 0 1 305.90 263.18&#10;  L 325.38 263.13&#10;  Z"/>
<path fill="#dcaf41" d="&#10;  M 325.38 263.13&#10;  L 355.77 263.14&#10;  Q 355.24 268.57 356.00 273.86&#10;  Q 356.51 277.42 356.58 279.67&#10;  Q 356.66 282.49 356.84 285.32&#10;  Q 356.87 285.70 356.60 285.97&#10;  Q 356.00 286.56 356.41 287.01&#10;  Q 356.77 287.41 356.66 287.94&#10;  Q 355.79 292.02 356.43 296.21&#10;  L 326.87 296.27&#10;  L 327.95 269.23&#10;  Q 327.96 268.85 327.78 268.51&#10;  Q 326.69 266.59 327.66 264.83&#10;  Q 327.95 264.31 327.41 264.06&#10;  L 325.38 263.13&#10;  Z"/>
<path fill="#c6943c" d="&#10;  M 355.77 263.14&#10;  L 365.66 263.24&#10;  Q 368.27 263.27 368.27 265.89&#10;  L 368.32 295.70&#10;  A 0.77 0.77 0.0 0 1 367.53 296.47&#10;  L 356.43 296.21&#10;  Q 355.79 292.02 356.66 287.94&#10;  Q 356.77 287.41 356.41 287.01&#10;  Q 356.00 286.56 356.60 285.97&#10;  Q 356.87 285.70 356.84 285.32&#10;  Q 356.66 282.49 356.58 279.67&#10;  Q 356.51 277.42 356.00 273.86&#10;  Q 355.24 268.57 355.77 263.14&#10;  Z"/>
<path fill="#f5df57" d="&#10;  M 208.87 264.56&#10;  Q 211.01 280.08 211.06 295.51&#10;  Q 211.07 300.26 209.14 305.49&#10;  L 196.75 308.50&#10;  Q 194.46 306.09 190.02 307.47&#10;  C 184.91 309.06 180.28 309.65 175.06 311.26&#10;  Q 173.31 292.77 173.33 274.31&#10;  L 208.87 264.56&#10;  Z"/>
<path fill="#e3c44b" d="&#10;  M 173.33 274.31&#10;  Q 173.31 292.77 175.06 311.26&#10;  Q 170.79 312.80 164.86 313.97&#10;  Q 164.79 313.98 161.73 315.03&#10;  Q 159.66 315.74 156.76 315.14&#10;  L 156.90 279.12&#10;  Q 156.91 278.27 157.73 278.07&#10;  L 173.33 274.31&#10;  Z"/>
<path fill="#edd351" d="&#10;  M 32.34 276.13&#10;  Q 33.47 284.77 32.04 293.70&#10;  L 2.29 293.85&#10;  A 0.97 0.97 0.0 0 1 1.32 292.88&#10;  L 1.28 277.49&#10;  A 1.34 1.34 0.0 0 1 2.62 276.15&#10;  L 32.34 276.13&#10;  Z"/>
<path fill="#c6943c" d="&#10;  M 32.34 276.13&#10;  L 69.03 276.26&#10;  A 2.35 2.34 90.0 0 1 71.36 278.60&#10;  L 71.41 292.41&#10;  A 1.05 1.05 0.0 0 1 70.37 293.46&#10;  L 32.04 293.70&#10;  Q 33.47 284.77 32.34 276.13&#10;  Z"/>
<path fill="#f5df57" d="&#10;  M 406.07 276.09&#10;  Q 409.58 285.98 407.42 297.90&#10;  L 381.97 297.77&#10;  A 0.75 0.75 0.0 0 1 381.23 297.02&#10;  L 381.21 276.76&#10;  A 0.67 0.67 0.0 0 1 381.88 276.09&#10;  L 406.07 276.09&#10;  Z"/>
<path fill="#dcaf41" d="&#10;  M 406.07 276.09&#10;  L 431.43 276.09&#10;  L 436.41 276.32&#10;  A 2.26 2.24 -1.5 0 1 438.55 278.34&#10;  Q 438.90 281.82 438.90 285.68&#10;  Q 438.90 285.79 439.12 291.04&#10;  Q 439.24 293.89 438.70 296.73&#10;  Q 438.61 297.24 438.10 297.35&#10;  L 435.77 297.86&#10;  L 407.42 297.90&#10;  Q 409.58 285.98 406.07 276.09&#10;  Z"/>
<path fill="#c48a32" d="&#10;  M 431.43 276.09&#10;  L 450.44 276.04&#10;  A 0.73 0.72 0.0 0 1 451.17 276.76&#10;  L 451.20 297.22&#10;  A 0.57 0.57 0.0 0 1 450.63 297.80&#10;  L 435.77 297.86&#10;  L 438.10 297.35&#10;  Q 438.61 297.24 438.70 296.73&#10;  Q 439.24 293.89 439.12 291.04&#10;  Q 438.90 285.79 438.90 285.68&#10;  Q 438.90 281.82 438.55 278.34&#10;  A 2.26 2.24 -1.5 0 0 436.41 276.32&#10;  L 431.43 276.09&#10;  Z"/>
<path fill="#f5df57" d="&#10;  M 105.77 302.28&#10;  L 108.28 302.84&#10;  Q 108.79 302.96 108.83 303.47&#10;  Q 110.42 321.08 109.81 338.74&#10;  Q 109.80 339.27 110.03 339.74&#10;  Q 110.68 341.06 110.38 342.53&#10;  Q 110.35 342.69 110.49 342.77&#10;  L 110.73 342.91&#10;  Q 111.18 343.17 110.67 343.27&#10;  L 109.53 343.51&#10;  L 82.30 343.54&#10;  Q 81.24 343.54 81.24 342.48&#10;  L 81.24 303.00&#10;  Q 81.24 302.25 81.99 302.25&#10;  L 105.77 302.28&#10;  Z"/>
<path fill="#dcaf41" d="&#10;  M 105.77 302.28&#10;  L 143.00 302.25&#10;  A 1.00 0.99 89.7 0 1 143.99 303.24&#10;  L 144.16 342.59&#10;  Q 144.16 343.14 143.62 343.14&#10;  L 109.53 343.51&#10;  L 110.67 343.27&#10;  Q 111.18 343.17 110.73 342.91&#10;  L 110.49 342.77&#10;  Q 110.35 342.69 110.38 342.53&#10;  Q 110.68 341.06 110.03 339.74&#10;  Q 109.80 339.27 109.81 338.74&#10;  Q 110.42 321.08 108.83 303.47&#10;  Q 108.79 302.96 108.28 302.84&#10;  L 105.77 302.28&#10;  Z"/>
<path fill="#edd351" d="&#10;  M 25.18 302.50&#10;  L 28.96 303.13&#10;  A 0.80 0.80 0.0 0 1 29.61 303.85&#10;  L 31.02 321.17&#10;  L 2.97 321.26&#10;  A 1.55 1.54 0.0 0 1 1.42 319.72&#10;  L 1.34 303.50&#10;  A 1.01 1.00 -0.3 0 1 2.34 302.50&#10;  L 25.18 302.50&#10;  Z"/>
<path fill="#c6943c" d="&#10;  M 25.18 302.50&#10;  L 70.08 303.24&#10;  A 0.84 0.84 0.0 0 1 70.91 304.08&#10;  L 70.94 320.67&#10;  Q 70.94 321.24 70.37 321.24&#10;  L 31.02 321.17&#10;  L 29.61 303.85&#10;  A 0.80 0.80 0.0 0 0 28.96 303.13&#10;  L 25.18 302.50&#10;  Z"/>
<path fill="#f5df57" d="&#10;  M 331.60 306.47&#10;  Q 332.43 323.66 331.66 340.60&#10;  A 0.36 0.36 0.0 0 1 331.45 340.91&#10;  Q 331.22 341.03 331.16 341.25&#10;  Q 331.03 341.80 331.47 342.24&#10;  L 305.95 342.06&#10;  A 0.79 0.79 0.0 0 1 305.16 341.26&#10;  L 305.23 307.70&#10;  Q 305.24 306.32 306.62 306.33&#10;  L 331.60 306.47&#10;  Z"/>
<path fill="#dcaf41" d="&#10;  M 331.60 306.47&#10;  L 367.47 306.65&#10;  Q 368.59 306.65 368.58 307.78&#10;  L 368.17 341.38&#10;  A 0.69 0.69 0.0 0 1 367.48 342.07&#10;  L 331.47 342.24&#10;  Q 331.03 341.80 331.16 341.25&#10;  Q 331.22 341.03 331.45 340.91&#10;  A 0.36 0.36 0.0 0 0 331.66 340.60&#10;  Q 332.43 323.66 331.60 306.47&#10;  Z"/>
<path fill="#dcaf41" d="&#10;  M 196.75 308.50&#10;  L 157.62 319.22&#10;  Q 156.96 319.40 156.93 318.73&#10;  L 156.76 315.14&#10;  Q 159.66 315.74 161.73 315.03&#10;  Q 164.79 313.98 164.86 313.97&#10;  Q 170.79 312.80 175.06 311.26&#10;  C 180.28 309.65 184.91 309.06 190.02 307.47&#10;  Q 194.46 306.09 196.75 308.50&#10;  Z"/>
<path fill="#e3c44b" d="&#10;  M 428.96 308.25&#10;  Q 428.72 308.91 429.10 309.41&#10;  Q 429.20 309.54 429.34 309.49&#10;  L 429.69 309.38&#10;  A 0.28 0.28 0.0 0 1 430.05 309.66&#10;  L 429.21 332.65&#10;  L 382.26 332.78&#10;  Q 381.22 332.78 381.22 331.74&#10;  L 381.23 309.02&#10;  A 0.47 0.47 0.0 0 1 381.70 308.55&#10;  L 428.96 308.25&#10;  Z"/>
<path fill="#c48a32" d="&#10;  M 428.96 308.25&#10;  L 450.61 308.30&#10;  A 0.60 0.59 0.5 0 1 451.21 308.90&#10;  L 451.16 331.97&#10;  A 0.74 0.74 0.0 0 1 450.42 332.71&#10;  L 429.21 332.65&#10;  L 430.05 309.66&#10;  A 0.28 0.28 0.0 0 0 429.69 309.38&#10;  L 429.34 309.49&#10;  Q 429.20 309.54 429.10 309.41&#10;  Q 428.72 308.91 428.96 308.25&#10;  Z"/>
<path fill="#dcaf41" d="&#10;  M 228.42 315.90&#10;  Q 228.80 320.15 229.59 324.25&#10;  Q 230.48 328.85 229.95 335.47&#10;  Q 229.35 342.91 229.33 346.61&#10;  Q 229.29 353.56 228.90 360.50&#10;  Q 227.85 379.30 228.47 398.11&#10;  Q 228.66 403.57 228.08 409.84&#10;  Q 227.37 417.42 227.46 423.75&#10;  Q 227.53 428.99 228.15 442.92&#10;  Q 228.47 450.22 228.16 459.56&#10;  Q 227.77 471.50 228.51 476.24&#10;  Q 229.28 481.13 229.23 483.92&#10;  Q 229.18 486.55 229.18 486.58&#10;  Q 229.47 496.85 229.86 507.21&#10;  L 220.02 507.22&#10;  Q 219.98 504.46 219.88 501.74&#10;  Q 219.78 499.01 219.90 496.26&#10;  Q 220.29 487.61 220.07 478.96&#10;  C 219.89 472.22 220.43 465.80 220.61 459.17&#10;  C 220.69 456.20 220.17 451.58 220.66 447.50&#10;  Q 221.32 442.01 220.75 435.00&#10;  C 219.85 423.90 220.95 408.67 220.64 396.33&#10;  Q 219.80 362.27 220.00 328.20&#10;  Q 220.01 326.88 219.66 321.81&#10;  Q 219.45 318.73 219.73 315.36&#10;  Q 223.91 314.23 228.42 315.90&#10;  Z"/>
<path fill="#f5df57" d="&#10;  M 219.73 315.36&#10;  Q 219.45 318.73 219.66 321.81&#10;  Q 220.01 326.88 220.00 328.20&#10;  Q 219.80 362.27 220.64 396.33&#10;  C 220.95 408.67 219.85 423.90 220.75 435.00&#10;  Q 221.32 442.01 220.66 447.50&#10;  C 220.17 451.58 220.69 456.20 220.61 459.17&#10;  C 220.43 465.80 219.89 472.22 220.07 478.96&#10;  Q 220.29 487.61 219.90 496.26&#10;  Q 219.78 499.01 219.88 501.74&#10;  Q 219.98 504.46 220.02 507.22&#10;  L 185.64 507.23&#10;  Q 184.48 482.51 184.08 457.82&#10;  C 184.03 454.80 184.60 451.02 184.37 447.56&#10;  Q 183.88 440.22 183.88 439.91&#10;  C 183.77 426.35 183.44 412.76 183.61 399.25&#10;  Q 183.97 370.17 183.75 350.00&#10;  Q 183.58 334.13 183.94 324.24&#10;  L 219.73 315.36&#10;  Z"/>
<path fill="#c6943c" d="&#10;  M 228.42 315.90&#10;  L 233.68 317.26&#10;  Q 235.28 329.05 234.42 337.00&#10;  Q 234.05 340.41 234.25 342.76&#10;  Q 234.57 346.69 234.57 346.78&#10;  Q 234.64 358.65 234.35 370.51&#10;  Q 234.14 378.69 234.07 390.49&#10;  Q 234.01 401.48 233.47 412.41&#10;  A 24.63 24.51 -48.2 0 0 233.74 417.40&#10;  Q 233.79 417.69 233.31 420.31&#10;  Q 233.04 421.80 233.01 423.22&#10;  C 232.78 432.98 233.41 440.23 233.39 446.83&#10;  Q 233.38 450.12 233.39 450.17&#10;  C 233.92 458.39 233.17 466.73 233.56 475.00&#10;  Q 233.58 475.44 234.20 490.52&#10;  Q 234.54 498.85 235.75 507.29&#10;  L 229.86 507.21&#10;  Q 229.47 496.85 229.18 486.58&#10;  Q 229.18 486.55 229.23 483.92&#10;  Q 229.28 481.13 228.51 476.24&#10;  Q 227.77 471.50 228.16 459.56&#10;  Q 228.47 450.22 228.15 442.92&#10;  Q 227.53 428.99 227.46 423.75&#10;  Q 227.37 417.42 228.08 409.84&#10;  Q 228.66 403.57 228.47 398.11&#10;  Q 227.85 379.30 228.90 360.50&#10;  Q 229.29 353.56 229.33 346.61&#10;  Q 229.35 342.91 229.95 335.47&#10;  Q 230.48 328.85 229.59 324.25&#10;  Q 228.80 320.15 228.42 315.90&#10;  Z"/>
<path fill="#c48a32" d="&#10;  M 233.68 317.26&#10;  L 259.88 323.10&#10;  Q 258.91 332.38 260.18 341.30&#10;  Q 261.09 347.71 261.10 351.07&#10;  C 261.13 359.73 260.45 368.79 260.59 376.98&#10;  Q 260.73 385.49 260.79 394.00&#10;  C 260.86 405.66 259.48 419.84 259.93 430.73&#10;  Q 260.83 452.69 259.66 474.63&#10;  C 259.46 478.49 259.93 482.95 259.57 487.20&#10;  A 1.18 1.14 28.1 0 0 259.84 488.04&#10;  Q 260.17 488.43 260.13 488.76&#10;  Q 259.79 492.32 260.09 497.26&#10;  Q 260.38 502.07 258.66 507.46&#10;  L 235.75 507.29&#10;  Q 234.54 498.85 234.20 490.52&#10;  Q 233.58 475.44 233.56 475.00&#10;  C 233.17 466.73 233.92 458.39 233.39 450.17&#10;  Q 233.38 450.12 233.39 446.83&#10;  C 233.41 440.23 232.78 432.98 233.01 423.22&#10;  Q 233.04 421.80 233.31 420.31&#10;  Q 233.79 417.69 233.74 417.40&#10;  A 24.63 24.51 -48.2 0 1 233.47 412.41&#10;  Q 234.01 401.48 234.07 390.49&#10;  Q 234.14 378.69 234.35 370.51&#10;  Q 234.64 358.65 234.57 346.78&#10;  Q 234.57 346.69 234.25 342.76&#10;  Q 234.05 340.41 234.42 337.00&#10;  Q 235.28 329.05 233.68 317.26&#10;  Z"/>
<path fill="#b57c31" d="&#10;  M 259.88 323.10&#10;  L 292.69 332.01&#10;  Q 293.24 332.15 293.24 332.72&#10;  L 293.23 506.54&#10;  Q 293.23 507.44 292.33 507.44&#10;  L 258.66 507.46&#10;  Q 260.38 502.07 260.09 497.26&#10;  Q 259.79 492.32 260.13 488.76&#10;  Q 260.17 488.43 259.84 488.04&#10;  A 1.18 1.14 28.1 0 1 259.57 487.20&#10;  C 259.93 482.95 259.46 478.49 259.66 474.63&#10;  Q 260.83 452.69 259.93 430.73&#10;  C 259.48 419.84 260.86 405.66 260.79 394.00&#10;  Q 260.73 385.49 260.59 376.98&#10;  C 260.45 368.79 261.13 359.73 261.10 351.07&#10;  Q 261.09 347.71 260.18 341.30&#10;  Q 258.91 332.38 259.88 323.10&#10;  Z"/>
<path fill="#e3c44b" d="&#10;  M 183.94 324.24&#10;  Q 183.58 334.13 183.75 350.00&#10;  Q 183.97 370.17 183.61 399.25&#10;  C 183.44 412.76 183.77 426.35 183.88 439.91&#10;  Q 183.88 440.22 184.37 447.56&#10;  C 184.60 451.02 184.03 454.80 184.08 457.82&#10;  Q 184.48 482.51 185.64 507.23&#10;  L 164.85 507.23&#10;  C 164.77 504.27 163.89 501.33 163.92 498.56&#10;  Q 164.05 487.76 163.20 476.99&#10;  Q 162.81 471.97 163.43 462.99&#10;  Q 164.02 454.57 164.03 449.00&#10;  Q 164.08 402.85 163.88 356.70&#10;  C 163.85 351.63 164.75 346.29 164.90 340.97&#10;  Q 164.99 337.55 165.48 335.08&#10;  Q 166.04 332.22 166.74 329.29&#10;  L 183.94 324.24&#10;  Z"/>
<path fill="#f5df57" d="&#10;  M 25.18 329.24&#10;  Q 25.51 329.68 26.40 329.89&#10;  Q 26.83 329.99 26.88 330.43&#10;  L 27.12 332.34&#10;  Q 27.18 332.79 26.94 333.18&#10;  Q 26.47 333.95 26.79 334.74&#10;  Q 27.00 335.25 26.97 335.79&#10;  L 26.27 349.50&#10;  Q 26.26 349.77 26.52 349.85&#10;  Q 26.69 349.89 26.87 349.86&#10;  A 0.01 0.00 18.4 0 1 26.88 349.87&#10;  Q 26.88 349.87 26.87 349.87&#10;  Q 25.26 350.24 23.53 350.29&#10;  L 2.08 349.84&#10;  Q 1.57 349.83 1.57 349.31&#10;  L 1.58 330.39&#10;  A 1.07 1.07 0.0 0 1 2.65 329.32&#10;  L 25.18 329.24&#10;  Z"/>
<path fill="#c6943c" d="&#10;  M 25.18 329.24&#10;  L 69.70 329.49&#10;  A 1.28 1.28 0.0 0 1 70.97 330.79&#10;  L 70.70 347.97&#10;  A 2.08 2.08 0.0 0 1 68.63 350.02&#10;  L 23.53 350.29&#10;  Q 25.26 350.24 26.87 349.87&#10;  Q 26.88 349.87 26.88 349.87&#10;  A 0.01 0.00 18.4 0 0 26.87 349.86&#10;  Q 26.69 349.89 26.52 349.85&#10;  Q 26.26 349.77 26.27 349.50&#10;  L 26.97 335.79&#10;  Q 27.00 335.25 26.79 334.74&#10;  Q 26.47 333.95 26.94 333.18&#10;  Q 27.18 332.79 27.12 332.34&#10;  L 26.88 330.43&#10;  Q 26.83 329.99 26.40 329.89&#10;  Q 25.51 329.68 25.18 329.24&#10;  Z"/>
<path fill="#dcaf41" d="&#10;  M 166.74 329.29&#10;  Q 166.04 332.22 165.48 335.08&#10;  Q 164.99 337.55 164.90 340.97&#10;  C 164.75 346.29 163.85 351.63 163.88 356.70&#10;  Q 164.08 402.85 164.03 449.00&#10;  Q 164.02 454.57 163.43 462.99&#10;  Q 162.81 471.97 163.20 476.99&#10;  Q 164.05 487.76 163.92 498.56&#10;  C 163.89 501.33 164.77 504.27 164.85 507.23&#10;  L 157.80 507.17&#10;  A 1.15 1.15 0.0 0 1 156.66 506.02&#10;  L 157.00 332.42&#10;  Q 157.00 331.82 157.58 331.67&#10;  L 166.74 329.29&#10;  Z"/>
<path fill="#dcaf41" d="&#10;  M 419.70 343.63&#10;  L 424.14 344.04&#10;  Q 424.63 344.09 424.65 344.58&#10;  L 425.44 366.72&#10;  L 403.34 366.68&#10;  Q 401.82 362.48 402.07 357.95&#10;  Q 402.23 354.96 401.90 352.55&#10;  Q 401.39 348.92 401.59 345.22&#10;  Q 401.60 345.09 401.48 345.03&#10;  Q 401.35 344.97 401.20 344.91&#10;  Q 400.80 344.73 400.97 344.33&#10;  L 401.20 343.81&#10;  L 419.70 343.63&#10;  Z"/>
<path fill="#c48a32" d="&#10;  M 419.70 343.63&#10;  L 449.42 343.56&#10;  Q 450.89 343.56 450.88 345.02&#10;  L 450.87 365.76&#10;  A 1.01 1.01 0.0 0 1 449.86 366.77&#10;  L 425.44 366.72&#10;  L 424.65 344.58&#10;  Q 424.63 344.09 424.14 344.04&#10;  L 419.70 343.63&#10;  Z"/>
<path fill="#f5df57" d="&#10;  M 401.20 343.81&#10;  L 400.97 344.33&#10;  Q 400.80 344.73 401.20 344.91&#10;  Q 401.35 344.97 401.48 345.03&#10;  Q 401.60 345.09 401.59 345.22&#10;  Q 401.39 348.92 401.90 352.55&#10;  Q 402.23 354.96 402.07 357.95&#10;  Q 401.82 362.48 403.34 366.68&#10;  L 382.99 366.77&#10;  A 1.51 1.50 -0.2 0 1 381.47 365.27&#10;  L 381.48 344.54&#10;  A 0.65 0.65 0.0 0 1 382.13 343.89&#10;  L 401.20 343.81&#10;  Z"/>
<path fill="#f5df57" d="&#10;  M 330.94 352.79&#10;  Q 333.29 353.23 333.27 354.97&#10;  Q 333.15 369.27 333.33 383.77&#10;  L 305.62 383.70&#10;  A 0.47 0.46 90.0 0 1 305.16 383.23&#10;  L 305.14 353.78&#10;  A 1.02 1.01 -89.7 0 1 306.16 352.76&#10;  L 330.94 352.79&#10;  Z"/>
<path fill="#dcaf41" d="&#10;  M 330.94 352.79&#10;  L 367.86 352.78&#10;  A 0.86 0.86 0.0 0 1 368.72 353.64&#10;  L 368.72 382.49&#10;  A 1.25 1.25 0.0 0 1 367.47 383.74&#10;  L 333.33 383.77&#10;  Q 333.15 369.27 333.27 354.97&#10;  Q 333.29 353.23 330.94 352.79&#10;  Z"/>
<path fill="#f5df57" d="&#10;  M 115.22 353.87&#10;  L 113.89 355.18&#10;  Q 113.57 355.50 113.83 355.87&#10;  L 114.42 356.69&#10;  Q 114.68 357.06 114.64 357.51&#10;  Q 113.70 367.26 113.92 377.03&#10;  C 113.97 379.28 112.85 381.32 112.76 383.73&#10;  L 81.93 383.73&#10;  A 0.74 0.73 -90.0 0 1 81.20 382.99&#10;  L 81.26 355.02&#10;  Q 81.26 353.91 82.38 353.91&#10;  L 115.22 353.87&#10;  Z"/>
<path fill="#dcaf41" d="&#10;  M 115.22 353.87&#10;  L 142.53 353.99&#10;  A 1.92 1.92 0.0 0 1 144.44 355.89&#10;  L 144.65 383.20&#10;  Q 144.65 383.74 144.12 383.74&#10;  L 112.76 383.73&#10;  C 112.85 381.32 113.97 379.28 113.92 377.03&#10;  Q 113.70 367.26 114.64 357.51&#10;  Q 114.68 357.06 114.42 356.69&#10;  L 113.83 355.87&#10;  Q 113.57 355.50 113.89 355.18&#10;  L 115.22 353.87&#10;  Z"/>
<path fill="#edd351" d="&#10;  M 35.37 359.40&#10;  L 35.02 379.58&#10;  Q 35.01 379.96 35.38 380.05&#10;  L 35.74 380.14&#10;  Q 36.13 380.24 35.74 380.34&#10;  Q 35.17 380.50 35.20 380.81&#10;  L 3.13 380.85&#10;  Q 1.58 380.85 1.58 379.29&#10;  L 1.65 360.96&#10;  Q 1.66 359.27 3.35 359.28&#10;  L 35.37 359.40&#10;  Z"/>
<path fill="#c48a32" d="&#10;  M 35.37 359.40&#10;  L 69.95 359.16&#10;  A 0.94 0.93 -0.0 0 1 70.90 360.10&#10;  L 70.83 380.08&#10;  Q 70.83 380.80 70.11 380.80&#10;  L 35.20 380.81&#10;  Q 35.17 380.50 35.74 380.34&#10;  Q 36.13 380.24 35.74 380.14&#10;  L 35.38 380.05&#10;  Q 35.01 379.96 35.02 379.58&#10;  L 35.37 359.40&#10;  Z"/>
<path fill="#edd351" d="&#10;  M 403.42 377.31&#10;  L 407.48 377.85&#10;  Q 408.03 377.93 407.84 378.45&#10;  Q 407.28 380.02 407.77 382.13&#10;  Q 408.48 385.19 407.78 390.24&#10;  Q 407.71 390.75 408.10 391.09&#10;  Q 408.85 391.76 408.65 392.72&#10;  Q 408.55 393.20 408.67 393.67&#10;  Q 409.64 397.38 409.03 401.23&#10;  Q 398.06 401.29 387.24 401.25&#10;  Q 384.71 401.24 382.07 398.69&#10;  Q 381.74 398.37 381.66 397.90&#10;  C 380.53 390.87 381.95 384.59 382.32 377.95&#10;  A 0.71 0.71 0.0 0 1 383.03 377.28&#10;  L 403.42 377.31&#10;  Z"/>
<path fill="#dcaf41" d="&#10;  M 403.42 377.31&#10;  L 417.69 377.30&#10;  L 420.05 377.63&#10;  Q 420.62 377.71 420.62 378.28&#10;  L 420.62 392.58&#10;  A 1.59 1.58 26.9 0 0 420.93 393.52&#10;  Q 422.07 395.04 421.83 396.99&#10;  Q 421.78 397.47 421.42 397.79&#10;  Q 420.27 398.82 420.56 401.21&#10;  L 409.03 401.23&#10;  Q 409.64 397.38 408.67 393.67&#10;  Q 408.55 393.20 408.65 392.72&#10;  Q 408.85 391.76 408.10 391.09&#10;  Q 407.71 390.75 407.78 390.24&#10;  Q 408.48 385.19 407.77 382.13&#10;  Q 407.28 380.02 407.84 378.45&#10;  Q 408.03 377.93 407.48 377.85&#10;  L 403.42 377.31&#10;  Z"/>
<path fill="#c48a32" d="&#10;  M 417.69 377.30&#10;  L 450.35 377.40&#10;  A 0.77 0.76 0.0 0 1 451.11 378.15&#10;  L 451.28 400.26&#10;  A 1.16 1.16 0.0 0 1 450.11 401.43&#10;  L 420.56 401.21&#10;  Q 420.27 398.82 421.42 397.79&#10;  Q 421.78 397.47 421.83 396.99&#10;  Q 422.07 395.04 420.93 393.52&#10;  A 1.59 1.58 26.9 0 1 420.62 392.58&#10;  L 420.62 378.28&#10;  Q 420.62 377.71 420.05 377.63&#10;  L 417.69 377.30&#10;  Z"/>
<path fill="#c48a32" d="&#10;  M 37.17 409.13&#10;  Q 38.57 409.47 39.18 406.20&#10;  Q 39.46 404.73 38.86 402.87&#10;  Q 38.04 400.29 38.13 399.08&#10;  Q 38.53 394.18 36.41 389.20&#10;  L 69.95 388.91&#10;  Q 70.86 388.90 70.86 389.81&#10;  L 70.89 407.99&#10;  A 0.69 0.68 -0.4 0 1 70.21 408.67&#10;  L 37.17 409.13&#10;  Z"/>
<path fill="#e3c44b" d="&#10;  M 36.41 389.20&#10;  Q 38.53 394.18 38.13 399.08&#10;  Q 38.04 400.29 38.86 402.87&#10;  Q 39.46 404.73 39.18 406.20&#10;  Q 38.57 409.47 37.17 409.13&#10;  L 2.46 409.02&#10;  A 1.27 1.27 0.0 0 1 1.20 407.76&#10;  L 1.17 390.25&#10;  A 1.04 1.04 0.0 0 1 2.21 389.21&#10;  L 36.41 389.20&#10;  Z"/>
<path fill="#dcaf41" d="&#10;  M 369.37 429.45&#10;  Q 369.02 429.61 368.93 429.76&#10;  Q 368.04 429.19 367.50 429.17&#10;  Q 347.63 428.64 327.68 428.72&#10;  L 331.22 428.16&#10;  Q 331.68 428.09 331.45 427.68&#10;  Q 330.34 425.77 330.36 424.85&#10;  Q 330.47 417.22 332.27 399.78&#10;  Q 332.53 397.26 331.50 394.70&#10;  Q 349.68 395.19 368.29 393.95&#10;  A 1.10 1.09 -2.0 0 1 369.46 395.04&#10;  L 369.37 429.45&#10;  Z"/>
<path fill="#f5df57" d="&#10;  M 114.95 394.78&#10;  L 115.26 395.16&#10;  Q 115.40 395.33 115.18 395.37&#10;  Q 114.60 395.47 114.41 395.99&#10;  Q 114.19 396.64 114.51 397.15&#10;  Q 114.75 397.54 114.73 398.00&#10;  Q 114.22 408.66 113.42 419.31&#10;  C 113.34 420.36 112.60 421.56 113.05 422.81&#10;  Q 113.21 423.26 113.20 423.74&#10;  L 113.04 428.74&#10;  L 81.96 428.75&#10;  A 0.74 0.74 0.0 0 1 81.22 428.01&#10;  L 81.24 396.47&#10;  A 1.67 1.67 0.0 0 1 82.91 394.80&#10;  L 114.95 394.78&#10;  Z"/>
<path fill="#dcaf41" d="&#10;  M 114.95 394.78&#10;  L 143.59 394.72&#10;  A 1.18 1.17 -90.0 0 1 144.76 395.90&#10;  L 144.78 428.00&#10;  A 0.72 0.71 0.0 0 1 144.06 428.71&#10;  L 113.04 428.74&#10;  L 113.20 423.74&#10;  Q 113.21 423.26 113.05 422.81&#10;  C 112.60 421.56 113.34 420.36 113.42 419.31&#10;  Q 114.22 408.66 114.73 398.00&#10;  Q 114.75 397.54 114.51 397.15&#10;  Q 114.19 396.64 114.41 395.99&#10;  Q 114.60 395.47 115.18 395.37&#10;  Q 115.40 395.33 115.26 395.16&#10;  L 114.95 394.78&#10;  Z"/>
<path fill="#f5df57" d="&#10;  M 331.50 394.70&#10;  Q 332.53 397.26 332.27 399.78&#10;  Q 330.47 417.22 330.36 424.85&#10;  Q 330.34 425.77 331.45 427.68&#10;  Q 331.68 428.09 331.22 428.16&#10;  L 327.68 428.72&#10;  L 305.85 428.73&#10;  A 0.72 0.72 0.0 0 1 305.13 428.01&#10;  L 305.13 395.76&#10;  A 1.02 1.02 0.0 0 1 306.15 394.74&#10;  L 331.50 394.70&#10;  Z"/>
<path fill="#edd351" d="&#10;  M 411.69 412.35&#10;  L 415.20 413.11&#10;  Q 415.32 413.14 415.27 413.26&#10;  Q 415.21 413.38 415.14 413.51&#10;  A 0.42 0.41 13.2 0 0 415.51 414.10&#10;  Q 415.64 414.10 415.77 414.10&#10;  A 0.42 0.41 80.9 0 1 416.18 414.40&#10;  Q 418.41 422.18 416.85 428.62&#10;  Q 415.48 434.29 415.42 438.29&#10;  Q 402.15 438.30 388.74 438.25&#10;  C 379.97 438.22 380.98 422.76 382.25 417.38&#10;  Q 383.51 412.04 389.24 412.09&#10;  Q 400.50 412.19 411.69 412.35&#10;  Z"/>
<path fill="#c48a32" d="&#10;  M 411.69 412.35&#10;  L 449.95 412.26&#10;  A 1.11 1.11 0.0 0 1 451.06 413.36&#10;  L 451.23 437.73&#10;  A 0.57 0.57 0.0 0 1 450.66 438.30&#10;  L 415.42 438.29&#10;  Q 415.48 434.29 416.85 428.62&#10;  Q 418.41 422.18 416.18 414.40&#10;  A 0.42 0.41 80.9 0 0 415.77 414.10&#10;  Q 415.64 414.10 415.51 414.10&#10;  A 0.42 0.41 13.2 0 1 415.14 413.51&#10;  Q 415.21 413.38 415.27 413.26&#10;  Q 415.32 413.14 415.20 413.11&#10;  L 411.69 412.35&#10;  Z"/>
<path fill="#f5df57" d="&#10;  M 18.53 418.25&#10;  Q 19.79 418.26 20.78 418.72&#10;  Q 21.30 418.97 21.09 419.50&#10;  Q 20.31 421.40 20.75 423.27&#10;  C 21.06 424.59 22.36 425.38 21.72 427.28&#10;  Q 21.57 427.75 21.60 428.25&#10;  L 22.30 438.83&#10;  L 2.55 438.59&#10;  A 1.32 1.32 0.0 0 1 1.25 437.27&#10;  L 1.23 418.75&#10;  A 0.59 0.59 0.0 0 1 1.82 418.16&#10;  L 18.53 418.25&#10;  Z"/>
<path fill="#c48a32" d="&#10;  M 22.30 438.83&#10;  L 21.60 428.25&#10;  Q 21.57 427.75 21.72 427.28&#10;  C 22.36 425.38 21.06 424.59 20.75 423.27&#10;  Q 20.31 421.40 21.09 419.50&#10;  Q 21.30 418.97 20.78 418.72&#10;  Q 19.79 418.26 18.53 418.25&#10;  L 69.93 418.30&#10;  Q 71.12 418.30 71.13 419.49&#10;  L 71.29 438.02&#10;  A 0.85 0.85 0.0 0 1 70.44 438.87&#10;  L 22.30 438.83&#10;  Z"/>
<path fill="#c48a32" d="&#10;  M 369.37 429.45&#10;  L 369.58 470.25&#10;  Q 369.59 470.93 368.91 470.93&#10;  L 356.08 470.94&#10;  Q 356.67 468.77 357.12 466.66&#10;  Q 357.55 464.68 357.56 462.29&#10;  Q 357.60 453.89 357.95 445.50&#10;  Q 357.96 445.25 358.23 445.13&#10;  Q 358.39 445.05 358.32 444.89&#10;  Q 357.01 441.92 358.16 439.37&#10;  L 367.66 439.35&#10;  A 1.33 1.33 0.0 0 0 368.98 438.02&#10;  L 368.93 429.76&#10;  Q 369.02 429.61 369.37 429.45&#10;  Z"/>
<path fill="#f5df57" d="&#10;  M 116.61 439.35&#10;  Q 115.27 442.28 115.73 445.26&#10;  Q 117.70 457.90 116.96 468.44&#10;  Q 116.93 468.83 116.65 469.10&#10;  L 116.28 469.47&#10;  A 0.24 0.23 -67.1 0 0 116.44 469.87&#10;  Q 116.60 469.87 116.75 469.86&#10;  Q 117.26 469.80 116.86 470.22&#10;  Q 116.65 470.42 116.71 470.62&#10;  L 81.97 470.63&#10;  A 0.86 0.85 90.0 0 1 81.12 469.77&#10;  L 81.13 440.34&#10;  A 0.87 0.87 0.0 0 1 82.00 439.47&#10;  L 116.61 439.35&#10;  Z"/>
<path fill="#dcaf41" d="&#10;  M 116.61 439.35&#10;  L 143.26 439.23&#10;  A 1.47 1.47 0.0 0 1 144.73 440.71&#10;  L 144.63 469.26&#10;  A 1.06 1.05 -90.0 0 1 143.59 470.31&#10;  L 116.71 470.62&#10;  Q 116.65 470.42 116.86 470.22&#10;  Q 117.26 469.80 116.75 469.86&#10;  Q 116.60 469.87 116.44 469.87&#10;  A 0.24 0.23 -67.1 0 1 116.28 469.47&#10;  L 116.65 469.10&#10;  Q 116.93 468.83 116.96 468.44&#10;  Q 117.70 457.90 115.73 445.26&#10;  Q 115.27 442.28 116.61 439.35&#10;  Z"/>
<path fill="#e3c44b" d="&#10;  M 358.16 439.37&#10;  Q 357.01 441.92 358.32 444.89&#10;  Q 358.39 445.05 358.23 445.13&#10;  Q 357.96 445.25 357.95 445.50&#10;  Q 357.60 453.89 357.56 462.29&#10;  Q 357.55 464.68 357.12 466.66&#10;  Q 356.67 468.77 356.08 470.94&#10;  L 317.55 471.01&#10;  Q 316.65 465.65 318.41 460.57&#10;  A 1.39 1.34 -47.2 0 0 318.39 459.61&#10;  C 317.43 457.22 317.96 454.71 317.85 452.88&#10;  C 317.59 448.59 317.26 444.55 317.73 440.29&#10;  Q 317.78 439.83 317.33 439.73&#10;  L 316.70 439.57&#10;  L 358.16 439.37&#10;  Z"/>
<path fill="#f5df57" d="&#10;  M 316.70 439.57&#10;  L 317.33 439.73&#10;  Q 317.78 439.83 317.73 440.29&#10;  C 317.26 444.55 317.59 448.59 317.85 452.88&#10;  C 317.96 454.71 317.43 457.22 318.39 459.61&#10;  A 1.39 1.34 -47.2 0 1 318.41 460.57&#10;  Q 316.65 465.65 317.55 471.01&#10;  L 306.06 470.89&#10;  Q 305.36 470.88 305.35 470.19&#10;  L 305.27 461.81&#10;  Q 306.10 455.71 305.33 450.66&#10;  L 305.33 440.58&#10;  A 0.93 0.92 -90.0 0 1 306.25 439.65&#10;  L 316.70 439.57&#10;  Z"/>
<path fill="#edd351" d="&#10;  M 418.56 448.49&#10;  Q 419.27 449.93 419.84 451.47&#10;  Q 420.37 452.89 420.38 454.63&#10;  Q 420.46 462.77 420.27 471.10&#10;  L 382.88 471.09&#10;  A 1.15 1.15 0.0 0 1 381.73 469.95&#10;  L 381.51 449.60&#10;  A 1.01 1.00 -0.6 0 1 382.51 448.59&#10;  L 418.56 448.49&#10;  Z"/>
<path fill="#c48a32" d="&#10;  M 418.56 448.49&#10;  L 449.57 448.69&#10;  A 1.34 1.33 0.2 0 1 450.90 450.02&#10;  L 450.88 470.71&#10;  Q 450.88 471.25 450.33 471.25&#10;  L 420.27 471.10&#10;  Q 420.46 462.77 420.38 454.63&#10;  Q 420.37 452.89 419.84 451.47&#10;  Q 419.27 449.93 418.56 448.49&#10;  Z"/>
<path fill="#f5df57" d="&#10;  M 28.18 449.26&#10;  L 29.62 449.70&#10;  Q 30.11 449.84 30.13 450.35&#10;  Q 30.51 458.15 30.46 465.86&#10;  Q 30.45 468.76 32.25 470.75&#10;  L 2.19 470.77&#10;  A 1.00 0.99 -90.0 0 1 1.20 469.77&#10;  L 1.18 450.19&#10;  A 0.92 0.91 -90.0 0 1 2.09 449.27&#10;  L 28.18 449.26&#10;  Z"/>
<path fill="#c48a32" d="&#10;  M 32.25 470.75&#10;  Q 30.45 468.76 30.46 465.86&#10;  Q 30.51 458.15 30.13 450.35&#10;  Q 30.11 449.84 29.62 449.70&#10;  L 28.18 449.26&#10;  L 69.09 449.31&#10;  A 1.68 1.68 0.0 0 1 70.77 450.99&#10;  L 70.76 469.51&#10;  A 1.17 1.16 90.0 0 1 69.60 470.68&#10;  L 32.25 470.75&#10;  Z"/>
<path fill="#c48a32" d="&#10;  M 305.33 450.66&#10;  Q 306.10 455.71 305.27 461.81&#10;  L 305.33 450.66&#10;  Z"/>
<path fill="#f5df57" d="&#10;  M 23.77 481.22&#10;  L 23.83 504.76&#10;  L 1.78 504.81&#10;  A 0.58 0.57 -0.0 0 1 1.20 504.24&#10;  L 1.19 482.00&#10;  Q 1.19 481.31 1.88 481.31&#10;  L 23.77 481.22&#10;  Z"/>
<path fill="#c48a32" d="&#10;  M 36.29 504.75&#10;  Q 35.71 501.17 35.73 499.24&#10;  Q 35.81 491.22 35.82 483.07&#10;  Q 35.82 482.53 35.35 482.26&#10;  Q 33.64 481.27 31.27 481.28&#10;  L 69.53 481.16&#10;  A 1.36 1.35 -89.8 0 1 70.89 482.54&#10;  L 70.54 504.19&#10;  A 0.58 0.57 -89.0 0 1 69.96 504.76&#10;  L 36.29 504.75&#10;  Z"/>
<path fill="#f5df57" d="&#10;  M 114.91 481.17&#10;  L 119.31 481.86&#10;  Q 119.71 481.92 119.70 482.33&#10;  Q 119.63 484.14 119.21 485.84&#10;  Q 118.81 487.48 118.87 489.28&#10;  Q 118.97 492.00 118.21 494.90&#10;  Q 117.64 497.08 117.25 500.13&#10;  C 117.03 501.83 116.05 503.72 116.97 505.85&#10;  Q 117.14 506.25 116.71 506.32&#10;  L 113.03 506.84&#10;  L 81.72 506.82&#10;  Q 81.13 506.82 81.13 506.23&#10;  L 81.09 481.77&#10;  A 0.59 0.59 0.0 0 1 81.68 481.18&#10;  L 114.91 481.17&#10;  Z"/>
<path fill="#dcaf41" d="&#10;  M 113.03 506.84&#10;  L 116.71 506.32&#10;  Q 117.14 506.25 116.97 505.85&#10;  C 116.05 503.72 117.03 501.83 117.25 500.13&#10;  Q 117.64 497.08 118.21 494.90&#10;  Q 118.97 492.00 118.87 489.28&#10;  Q 118.81 487.48 119.21 485.84&#10;  Q 119.63 484.14 119.70 482.33&#10;  Q 119.71 481.92 119.31 481.86&#10;  L 114.91 481.17&#10;  L 143.92 481.06&#10;  A 0.93 0.93 0.0 0 1 144.85 481.99&#10;  L 144.76 506.53&#10;  A 0.50 0.50 0.0 0 1 144.25 507.03&#10;  L 113.03 506.84&#10;  Z"/>
<path fill="#dcaf41" d="&#10;  M 23.77 481.22&#10;  L 31.27 481.28&#10;  Q 33.64 481.27 35.35 482.26&#10;  Q 35.82 482.53 35.82 483.07&#10;  Q 35.81 491.22 35.73 499.24&#10;  Q 35.71 501.17 36.29 504.75&#10;  L 23.83 504.76&#10;  L 23.77 481.22&#10;  Z"/>
<path fill="#edd351" d="&#10;  M 343.18 481.27&#10;  L 345.65 482.12&#10;  A 0.68 0.67 11.7 0 1 346.11 482.81&#10;  L 344.56 506.76&#10;  L 307.34 507.23&#10;  A 2.03 2.03 0.0 0 1 305.29 505.19&#10;  L 305.43 482.81&#10;  Q 305.43 481.44 306.81 481.43&#10;  L 343.18 481.27&#10;  Z"/>
<path fill="#c6943c" d="&#10;  M 343.18 481.27&#10;  L 369.10 481.29&#10;  A 1.25 1.24 89.8 0 1 370.34 482.53&#10;  L 370.51 505.98&#10;  A 0.90 0.90 0.0 0 1 369.61 506.89&#10;  L 344.56 506.76&#10;  L 346.11 482.81&#10;  A 0.68 0.67 11.7 0 0 345.65 482.12&#10;  L 343.18 481.27&#10;  Z"/>
<path fill="#f5df57" d="&#10;  M 405.08 481.78&#10;  Q 406.27 483.82 405.52 485.65&#10;  Q 405.33 486.11 405.57 486.54&#10;  Q 406.14 487.56 406.05 488.74&#10;  Q 405.40 496.80 404.03 504.75&#10;  L 383.08 504.82&#10;  A 0.82 0.82 0.0 0 1 382.26 504.01&#10;  L 382.21 482.73&#10;  A 0.96 0.95 90.0 0 1 383.16 481.77&#10;  L 405.08 481.78&#10;  Z"/>
<path fill="#dcaf41" d="&#10;  M 405.08 481.78&#10;  L 418.71 481.76&#10;  Q 419.13 489.39 419.82 496.93&#10;  C 420.00 498.85 419.51 500.10 420.64 502.26&#10;  A 1.26 1.26 0.0 0 1 419.85 504.06&#10;  L 417.29 504.75&#10;  L 404.03 504.75&#10;  Q 405.40 496.80 406.05 488.74&#10;  Q 406.14 487.56 405.57 486.54&#10;  Q 405.33 486.11 405.52 485.65&#10;  Q 406.27 483.82 405.08 481.78&#10;  Z"/>
<path fill="#c48a32" d="&#10;  M 418.71 481.76&#10;  L 450.45 481.79&#10;  A 0.73 0.73 0.0 0 1 451.18 482.51&#10;  L 451.33 503.76&#10;  A 1.09 1.08 0.0 0 1 450.23 504.85&#10;  L 417.29 504.75&#10;  L 419.85 504.06&#10;  A 1.26 1.26 0.0 0 0 420.64 502.26&#10;  C 419.51 500.10 420.00 498.85 419.82 496.93&#10;  Q 419.13 489.39 418.71 481.76&#10;  Z"/>
</svg>